<mxfile host="app.diagrams.net" modified="2024-02-14T23:35:04.334Z" agent="Mozilla/5.0 (Windows NT 10.0; Win64; x64) AppleWebKit/537.36 (KHTML, like Gecko) Chrome/123.0.0.0 Safari/537.36" etag="GoEcokxQBAigbsPeMRVK" version="23.1.1" type="github">
  <diagram name="Exercício 1" id="cViD2hHgw0PeuSOtFopX">
    <mxGraphModel dx="955" dy="446" grid="1" gridSize="10" guides="1" tooltips="1" connect="1" arrows="1" fold="1" page="1" pageScale="1" pageWidth="827" pageHeight="1169" math="0" shadow="0">
      <root>
        <mxCell id="0" />
        <mxCell id="1" parent="0" />
        <mxCell id="w6NW4HsJK8lRZk9CLlEC-3" value="" style="edgeStyle=orthogonalEdgeStyle;rounded=0;orthogonalLoop=1;jettySize=auto;html=1;" edge="1" parent="1" source="w6NW4HsJK8lRZk9CLlEC-1" target="w6NW4HsJK8lRZk9CLlEC-2">
          <mxGeometry relative="1" as="geometry" />
        </mxCell>
        <mxCell id="w6NW4HsJK8lRZk9CLlEC-1" value="" style="ellipse;whiteSpace=wrap;html=1;aspect=fixed;fillColor=#b1ddf0;strokeColor=#10739e;" vertex="1" parent="1">
          <mxGeometry x="40" y="100" width="40" height="40" as="geometry" />
        </mxCell>
        <mxCell id="w6NW4HsJK8lRZk9CLlEC-5" value="" style="edgeStyle=orthogonalEdgeStyle;rounded=0;orthogonalLoop=1;jettySize=auto;html=1;" edge="1" parent="1" source="w6NW4HsJK8lRZk9CLlEC-2" target="w6NW4HsJK8lRZk9CLlEC-4">
          <mxGeometry relative="1" as="geometry" />
        </mxCell>
        <mxCell id="w6NW4HsJK8lRZk9CLlEC-2" value="Ler Salário de Estagiário e Valor da Faculdade.&lt;br&gt;&lt;b&gt;(Sal_Est&amp;nbsp;&lt;/b&gt;e &lt;b&gt;Val_Fac)&lt;/b&gt;" style="whiteSpace=wrap;html=1;" vertex="1" parent="1">
          <mxGeometry x="120" y="80" width="120" height="80" as="geometry" />
        </mxCell>
        <mxCell id="w6NW4HsJK8lRZk9CLlEC-8" value="" style="edgeStyle=orthogonalEdgeStyle;rounded=0;orthogonalLoop=1;jettySize=auto;html=1;" edge="1" parent="1" source="w6NW4HsJK8lRZk9CLlEC-4" target="w6NW4HsJK8lRZk9CLlEC-7">
          <mxGeometry relative="1" as="geometry" />
        </mxCell>
        <mxCell id="w6NW4HsJK8lRZk9CLlEC-4" value="Calcular&amp;nbsp; Salário Líquido.&lt;br&gt;&lt;b&gt;(Sal_Liq = Sal_Est - Val_Fac)&lt;/b&gt;" style="whiteSpace=wrap;html=1;" vertex="1" parent="1">
          <mxGeometry x="320" y="80" width="120" height="80" as="geometry" />
        </mxCell>
        <mxCell id="w6NW4HsJK8lRZk9CLlEC-10" value="" style="edgeStyle=orthogonalEdgeStyle;rounded=0;orthogonalLoop=1;jettySize=auto;html=1;" edge="1" parent="1" source="w6NW4HsJK8lRZk9CLlEC-7" target="w6NW4HsJK8lRZk9CLlEC-9">
          <mxGeometry relative="1" as="geometry" />
        </mxCell>
        <mxCell id="w6NW4HsJK8lRZk9CLlEC-7" value="Calcular&amp;nbsp; Média Diária em 30 dias.&lt;br&gt;&lt;b&gt;Media = Sal_Liq / 30&lt;/b&gt;" style="whiteSpace=wrap;html=1;" vertex="1" parent="1">
          <mxGeometry x="520" y="80" width="120" height="80" as="geometry" />
        </mxCell>
        <mxCell id="w6NW4HsJK8lRZk9CLlEC-9" value="" style="rhombus;whiteSpace=wrap;html=1;" vertex="1" parent="1">
          <mxGeometry x="560" y="200" width="40" height="40" as="geometry" />
        </mxCell>
      </root>
    </mxGraphModel>
  </diagram>
</mxfile>
